<svg version="1.1" xmlns="http://www.w3.org/2000/svg" xmlns:xlink="http://www.w3.org/1999/xlink">
    <symbol id="calendar" viewBox="0 0 28 28">
        <path d="M1.75 2.625H8.75V0.875C8.75 0.638021 8.83659 0.432943 9.00977 0.259766C9.18294 0.0865885 9.38802 0 9.625 0C9.86198 0 10.0671 0.0865885 10.2402 0.259766C10.4134 0.432943 10.5 0.638021 10.5 0.875V2.625H17.5V0.875C17.5 0.638021 17.5866 0.432943 17.7598 0.259766C17.9329 0.0865885 18.138 0 18.375 0C18.612 0 18.8171 0.0865885 18.9902 0.259766C19.1634 0.432943 19.25 0.638021 19.25 0.875V2.625H26.25C26.7422 2.625 27.1569 2.79362 27.4941 3.13086C27.8314 3.4681 28 3.88281 28 4.375V26.25C28 26.5599 27.9225 26.8516 27.7676 27.125C27.6126 27.3984 27.3984 27.6126 27.125 27.7676C26.8516 27.9225 26.5599 28 26.25 28H1.75C1.25781 28 0.8431 27.8268 0.505859 27.4805C0.168619 27.1341 0 26.724 0 26.25V4.375C0 4.04688 0.0774746 3.75065 0.232422 3.48633C0.387369 3.22201 0.601562 3.01237 0.875 2.85742C1.14844 2.70247 1.4401 2.625 1.75 2.625ZM1.75 26.25H26.25V4.375H19.25V5.25C19.25 5.48698 19.1634 5.69206 18.9902 5.86523C18.8171 6.03841 18.612 6.125 18.375 6.125C18.138 6.125 17.9329 6.03841 17.7598 5.86523C17.5866 5.69206 17.5 5.48698 17.5 5.25V4.375H10.5V5.25C10.5 5.48698 10.4134 5.69206 10.2402 5.86523C10.0671 6.03841 9.86198 6.125 9.625 6.125C9.38802 6.125 9.18294 6.03841 9.00977 5.86523C8.83659 5.69206 8.75 5.48698 8.75 5.25V4.375H1.75V26.25ZM7.875 14H6.125C5.88802 14 5.68294 13.9134 5.50977 13.7402C5.33659 13.5671 5.25 13.362 5.25 13.125V11.375C5.25 11.138 5.33659 10.9329 5.50977 10.7598C5.68294 10.5866 5.88802 10.5 6.125 10.5H7.875C8.11198 10.5 8.31706 10.5866 8.49023 10.7598C8.66341 10.9329 8.75 11.138 8.75 11.375V13.125C8.75 13.362 8.66341 13.5671 8.49023 13.7402C8.31706 13.9134 8.11198 14 7.875 14ZM7.875 21H6.125C5.88802 21 5.68294 20.9134 5.50977 20.7402C5.33659 20.5671 5.25 20.362 5.25 20.125V18.375C5.25 18.138 5.33659 17.9329 5.50977 17.7598C5.68294 17.5866 5.88802 17.5 6.125 17.5H7.875C8.11198 17.5 8.31706 17.5866 8.49023 17.7598C8.66341 17.9329 8.75 18.138 8.75 18.375V20.125C8.75 20.362 8.66341 20.5671 8.49023 20.7402C8.31706 20.9134 8.11198 21 7.875 21ZM13.125 17.5H14.875C15.112 17.5 15.3171 17.5866 15.4902 17.7598C15.6634 17.9329 15.75 18.138 15.75 18.375V20.125C15.75 20.2161 15.7363 20.3073 15.709 20.3984C15.6816 20.4896 15.6406 20.5716 15.5859 20.6445C15.5312 20.7174 15.4674 20.7812 15.3945 20.8359C15.3216 20.8906 15.2396 20.9316 15.1484 20.959C15.0573 20.9863 14.9661 21 14.875 21H13.125C12.888 21 12.6829 20.9134 12.5098 20.7402C12.3366 20.5671 12.25 20.362 12.25 20.125V18.375C12.25 18.3021 12.2591 18.2246 12.2773 18.1426C12.2956 18.0605 12.3229 17.9876 12.3594 17.9238C12.3958 17.86 12.4414 17.8008 12.4961 17.7461C12.5508 17.6914 12.61 17.6458 12.6738 17.6094C12.7376 17.5729 12.8105 17.5456 12.8926 17.5273C12.9746 17.5091 13.0521 17.5 13.125 17.5ZM13.125 10.5H14.875C15.112 10.5 15.3171 10.5866 15.4902 10.7598C15.6634 10.9329 15.75 11.138 15.75 11.375V13.125C15.75 13.362 15.6634 13.5671 15.4902 13.7402C15.3171 13.9134 15.112 14 14.875 14H13.125C12.888 14 12.6829 13.9134 12.5098 13.7402C12.3366 13.5671 12.25 13.362 12.25 13.125V11.375C12.25 11.2474 12.2728 11.1335 12.3184 11.0332C12.3639 10.9329 12.4277 10.8418 12.5098 10.7598C12.5918 10.6777 12.6829 10.6139 12.7832 10.5684C12.8835 10.5228 12.9974 10.5 13.125 10.5ZM20.125 10.5H21.875C22.112 10.5 22.3171 10.5866 22.4902 10.7598C22.6634 10.9329 22.75 11.138 22.75 11.375V13.125C22.75 13.362 22.6634 13.5671 22.4902 13.7402C22.3171 13.9134 22.112 14 21.875 14H20.125C19.888 14 19.6829 13.9134 19.5098 13.7402C19.3366 13.5671 19.25 13.362 19.25 13.125V11.375C19.25 11.2474 19.2728 11.1335 19.3184 11.0332C19.3639 10.9329 19.4277 10.8418 19.5098 10.7598C19.5918 10.6777 19.6829 10.6139 19.7832 10.5684C19.8835 10.5228 19.9974 10.5 20.125 10.5ZM20.125 17.5H21.875C22.112 17.5 22.3171 17.5866 22.4902 17.7598C22.6634 17.9329 22.75 18.138 22.75 18.375V20.125C22.75 20.362 22.6634 20.5671 22.4902 20.7402C22.3171 20.9134 22.112 21 21.875 21H20.125C19.888 21 19.6829 20.9134 19.5098 20.7402C19.3366 20.5671 19.25 20.362 19.25 20.125V18.375C19.25 18.3021 19.2591 18.2246 19.2773 18.1426C19.2956 18.0605 19.3229 17.9876 19.3594 17.9238C19.3958 17.86 19.4414 17.8008 19.4961 17.7461C19.5508 17.6914 19.61 17.6458 19.6738 17.6094C19.7376 17.5729 19.8105 17.5456 19.8926 17.5273C19.9746 17.5091 20.0521 17.5 20.125 17.5Z"/>
    </symbol>
    <symbol id="service" viewBox="0 0 36 31">
        <path d="M34.051 20.0026C33.8829 15.6322 32.2331 11.5496 29.3607 8.43784C26.5762 5.42132 22.9493 3.64943 19.0547 3.37777V1.99805H20.8477V-0.287109H15.1523V1.99805H16.9453V3.37777C13.0507 3.64943 9.4238 5.42132 6.63931 8.43784C3.76694 11.5496 2.11707 15.6322 1.94897 20.0026H0V22.6025C0 25.1436 1.90833 27.2109 4.25391 27.2109H31.7461C34.0917 27.2109 36 25.1436 36 22.6025V20.0026H34.051ZM18 5.62514C25.466 5.62514 31.5813 12.009 31.94 20.0026H4.06C4.4187 12.009 10.534 5.62514 18 5.62514ZM33.8906 22.6025C33.8906 23.8835 32.9285 24.9258 31.7461 24.9258H4.25391C3.0715 24.9258 2.10938 23.8835 2.10938 22.6025V22.2877H33.8906V22.6025Z"/>
        <path d="M6.02246 17.9073L8.10986 18.2367C8.11398 18.2078 8.52927 15.3231 10.2354 13.6985L8.84265 11.9819C6.54404 14.171 6.04279 17.7555 6.02246 17.9073Z"/>
    </symbol>
    <symbol id="heartbeat" viewBox="0 0 33 33">
        <path d="M0.0105705 16.7603L2.67061 16.7748L2.50446 16.6058C-0.775951 13.3221 -0.775047 7.98182 2.50742 4.69942C5.79079 1.41598 11.1334 1.41592 14.4168 4.69942L16.5026 6.78531L18.5884 4.69948C21.8718 1.41605 27.2144 1.41605 30.4978 4.69948C33.7814 7.98285 33.7813 13.3254 30.5 16.6067L29.8894 17.221H33V19.1543H27.9683L16.4325 30.7625L4.583 18.7185L0 18.6935L0.0105705 16.7603ZM16.4393 28.013L25.2427 19.1544H21.0427L19.2264 14.7872L16.4626 23.503L12.4524 17.3479L11.392 18.7556L7.30969 18.7333L16.4393 28.013ZM5.39737 16.7897L10.4319 16.8172L12.5673 13.9827L15.8539 19.0272L18.9814 9.16396L22.3326 17.2211H27.164L29.1309 15.2418C30.3563 14.0163 31.0311 12.3871 31.0311 10.6541C31.0311 8.92103 30.3563 7.29179 29.1308 6.0664C27.9054 4.84102 26.2761 4.1662 24.5432 4.1662C22.8102 4.1662 21.1809 4.84102 19.9555 6.0664L16.5026 9.51922L13.0498 6.0664C11.8244 4.84096 10.1951 4.1662 8.46218 4.1662C6.7291 4.1662 5.09985 4.84102 3.87447 6.0664C2.64909 7.29179 1.97426 8.9211 1.97426 10.6541C1.97426 12.3871 2.64909 14.0164 3.87447 15.2418L5.39737 16.7897Z"/>
    </symbol>
    <symbol id="star" viewBox="0 0 33 33">
        <path d="M32.9548 12.6527C32.8464 12.3208 32.5619 12.0838 32.2165 12.0296L21.9214 10.5666L17.2886 1.25359C17.1328 0.942025 16.8145 0.745605 16.469 0.745605C16.1236 0.745605 15.8053 0.942025 15.6495 1.26036L11.0777 10.6005L0.782559 12.1312C0.437131 12.1854 0.152661 12.4224 0.0442916 12.7543C-0.0640779 13.0862 0.0307454 13.4519 0.28135 13.689L7.75207 20.9294L6.02493 31.1839C5.96398 31.5293 6.10621 31.8747 6.39068 32.0779C6.54646 32.1931 6.73611 32.254 6.92575 32.254C7.07476 32.254 7.217 32.2202 7.35246 32.1457L16.5435 27.2758L25.7617 32.0915C25.8972 32.1592 26.0394 32.1931 26.1817 32.1931C26.6829 32.1931 27.096 31.7799 27.096 31.2787C27.096 31.2042 27.0893 31.1365 27.0689 31.0687L25.2876 20.8752L32.7109 13.5942C32.9751 13.3503 33.0631 12.9846 32.9548 12.6527ZM23.6756 19.9067C23.4589 20.1167 23.3641 20.4214 23.4182 20.7195L24.9693 29.6125L16.9635 25.4335C16.6993 25.2913 16.381 25.2981 16.1101 25.4335L8.13137 29.6599L9.62822 20.7533C9.67563 20.4553 9.58081 20.1573 9.36407 19.9473L2.88899 13.6619L11.8227 12.3344C12.1207 12.287 12.3781 12.1041 12.5068 11.8332L16.4758 3.72577L20.499 11.8128C20.6345 12.0838 20.8919 12.2666 21.1899 12.314L30.1304 13.5874L23.6756 19.9067Z"/>
    </symbol>
    <symbol id="service-1" viewBox="0 0 74 60">
        <path d="M64.6115 7.67538C58.9975 2.29329 53.3909 -0.07548 47.9486 0.636782C41.3138 1.50454 37.0352 6.68474 35.6333 8.64847C29.4022 7.18006 28.1357 1.87195 28.0805 1.62492C27.9326 0.950277 27.2667 0.513891 26.5921 0.666877C25.9149 0.811085 25.4835 1.4782 25.629 2.15661C25.6955 2.4676 27.3633 9.79587 35.9932 11.2793L36.8321 11.421L37.276 10.6975C37.3174 10.6298 41.4492 4.00498 48.2922 3.12092C52.9382 2.51776 57.8451 4.66206 62.876 9.48488C72.9681 19.1619 72.79 31.6039 69.2588 40.0219C64.831 50.5766 54.9897 57.224 44.1353 56.8591L44.0274 56.8566L43.9233 56.8716C43.8331 56.8867 34.679 58.0654 24.0515 51.7077L23.1022 51.1572L22.4188 52.0149C22.3837 52.0588 21.5385 53.0984 20.0237 53.1837C18.4938 53.289 16.6705 52.3209 14.7858 50.4374C13.5356 49.1872 11.7888 48.816 10.2226 49.4606C9.0338 49.9509 6.27002 51.7905 6.27002 58.2272C6.27002 58.9206 6.8318 59.4811 7.524 59.4811C8.2162 59.4811 8.77798 58.9206 8.77798 58.2272C8.77798 54.2044 10.0194 52.257 11.1819 51.7754C11.8089 51.5121 12.476 51.6739 13.0114 52.2081C15.473 54.6709 17.8882 55.8333 20.2319 55.6828C21.7642 55.5788 22.8978 54.9091 23.5938 54.3448C31.4362 58.8053 38.3481 59.4887 41.853 59.4887C43.0606 59.4887 43.8644 59.4072 44.1603 59.3708C55.9766 59.6366 66.7521 52.4802 71.5712 40.9937C76.4893 29.2727 73.822 16.5059 64.6115 7.67538Z"/>
        <path d="M8.03176 43.2673C13.7913 39.8389 22.4099 44.4335 22.4952 44.4811L23.388 44.9652L24.0464 44.194C27.7143 39.9029 33.3321 41.6735 33.5641 41.7475L35.02 42.234L35.2056 40.7104C35.6281 37.2469 40.5137 35.3785 40.5638 35.3597L41.3814 35.0525V26.5078L40.6829 26.163C37.2019 24.4413 36.9937 19.8705 36.9912 19.8291L36.9599 18.8184L35.9667 18.6341C21.2939 15.9129 19.1847 5.65284 19.1019 5.21645C18.9753 4.5393 18.3295 4.08034 17.6448 4.21201C16.9639 4.33616 16.5112 4.98823 16.6353 5.66914C16.7256 6.16446 18.9803 17.6045 34.5886 20.9151C34.8482 22.628 35.751 26.0852 38.8734 28.0214V33.3583C37.3411 34.0819 34.1183 35.9277 33.0337 39.0439C30.8329 38.6401 26.3386 38.3768 22.815 41.839C20.2393 40.6352 12.6063 37.6306 6.75646 41.1054C2.27347 43.7701 0 49.5309 0 58.2273C0 58.9207 0.561784 59.4813 1.25398 59.4813C1.94618 59.4813 2.50796 58.9207 2.50796 58.2273C2.50796 50.4827 4.36637 45.4492 8.03176 43.2673Z"/>
    </symbol>
    <symbol id="service-2" viewBox="0 0 63 58">
        <path d="M35.487 5.12854L35.6689 5.30002L31.6868 9.52469L31.5049 9.71771L31.323 9.52469L27.3411 5.29989C21.1714 -1.24586 11.1384 -1.24573 4.96882 5.29989L4.7869 5.12841L4.96882 5.29989C-1.20696 11.8518 -1.20868 22.5179 4.96325 29.0725L4.96457 29.0739L5.28178 29.416L5.67422 29.8393L5.097 29.836L0.268887 29.8081L0.251286 33.2238L8.75081 33.2728L8.85907 33.2735L8.93268 33.3528L31.3721 57.5503L53.2115 34.2347L53.2856 34.1556H53.394H62.75V30.7399H57.0615H56.4847L56.8791 30.319L58.0448 29.0746L58.0453 29.0741C64.2188 22.5244 64.219 11.8539 58.0412 5.30002L58.0412 5.30002C51.8715 -1.2456 41.8385 -1.2456 35.6689 5.30002L35.487 5.12854ZM31.5667 52.5189L31.3833 52.7146L31.2009 52.518L13.7716 33.7229L13.379 33.2995L13.9563 33.3029L21.6197 33.3473L23.5689 30.6021L23.7879 30.2937L23.9858 30.616L31.349 42.6064L36.4654 25.4887L36.673 24.794L36.9376 25.469L40.343 34.1557H48.1906H48.7673L48.373 34.5766L31.5667 52.5189ZM10.3026 29.8662L10.1944 29.8655L10.1208 29.7862L7.21479 26.6525C7.2145 26.6522 7.2142 26.6519 7.21391 26.6516C4.82998 24.1219 3.51905 20.7605 3.51905 17.1891C3.51905 13.6174 4.83031 10.2554 7.21479 7.72565C9.59975 5.19537 12.7752 3.79842 16.1551 3.79842C19.5347 3.79842 22.7101 5.19524 25.0952 7.72565L31.505 14.526L37.9149 7.72565L38.0968 7.89713L37.9149 7.72565C40.2999 5.19537 43.4754 3.79842 46.8551 3.79842C50.2347 3.79842 53.4102 5.19537 55.7953 7.72565C58.1799 10.2554 59.4912 13.6172 59.4912 17.1891C59.4912 20.7606 58.18 24.1223 55.7957 26.6522C55.7956 26.6523 55.7955 26.6524 55.7954 26.6525L52.0409 30.6609L51.9669 30.74H51.8585H42.6349H42.4644L42.4021 30.5813L36.2692 14.9373L30.506 34.2196L30.3459 34.7551L30.0534 34.2788L23.977 24.3839L20.1193 29.8167L20.0441 29.9227L19.9141 29.9219L10.3026 29.8662Z" stroke="white" stroke-width="0.5"/>
    </symbol>
    <symbol id="service-3" viewBox="0 0 66 66">
        <path d="M60.5418 33.302C60.3483 33.1086 60.086 33 59.8125 33H57.75C57.5464 33 57.3474 33.0603 57.178 33.1732L55.6875 34.1668V31.9688C55.6875 31.7652 55.6272 31.5661 55.5143 31.3967L53.9723 29.0837C54.419 28.4106 54.657 27.6204 54.6562 26.8125V25.0804L59.6204 18.1307C59.7453 17.9558 59.8125 17.7462 59.8125 17.5312V12.375C59.8109 11.008 59.2672 9.69735 58.3005 8.73071C57.3339 7.76406 56.0233 7.22031 54.6562 7.21875H51.2127C49.2432 7.22074 47.3026 7.69183 45.5515 8.593C43.8004 9.49417 42.2891 10.7995 41.1427 12.4009L39.688 14.4375H38.4458L39.1567 11.5939C39.216 11.3551 39.1879 11.1029 39.0774 10.8831L39.0786 10.8825L37.2467 7.21875L39.0786 3.55499C39.1573 3.39777 39.1944 3.22305 39.1865 3.04743C39.1786 2.87181 39.126 2.70112 39.0336 2.55158C38.9411 2.40204 38.812 2.27861 38.6585 2.19301C38.5049 2.10741 38.332 2.06248 38.1562 2.0625H27.8438C27.668 2.06248 27.4951 2.10741 27.3415 2.19301C27.188 2.27861 27.0589 2.40204 26.9664 2.55158C26.874 2.70112 26.8214 2.87181 26.8135 3.04743C26.8056 3.22305 26.8427 3.39777 26.9214 3.55499L28.7533 7.21875L26.9214 10.8825L26.9226 10.8831C26.8121 11.1029 26.784 11.3551 26.8433 11.5939L27.5542 14.4375H26.312L24.8573 12.4009C23.7109 10.7995 22.1996 9.49417 20.4485 8.593C18.6974 7.69183 16.7568 7.22074 14.7873 7.21875H11.3438C9.97671 7.22031 8.6661 7.76406 7.69946 8.73071C6.73281 9.69735 6.18906 11.008 6.1875 12.375V17.5312C6.18755 17.7462 6.25471 17.9558 6.3796 18.1307L11.3438 25.0804V26.8125C11.343 27.6204 11.5809 28.4106 12.0277 29.0837L10.4857 31.3967C10.3728 31.5661 10.3125 31.7652 10.3125 31.9688V34.1668L8.82202 33.1732C8.65262 33.0603 8.45359 33 8.25 33H6.1875C5.91399 33 5.65168 33.1086 5.45825 33.302L2.3645 36.3957C2.17113 36.5892 2.06251 36.8515 2.0625 37.125V42.2812C2.06252 42.4414 2.0998 42.5993 2.1714 42.7425C2.243 42.8857 2.34695 43.0102 2.47503 43.1063L6.1875 45.8906V62.9062C6.18751 63.1797 6.29617 63.442 6.48956 63.6354C6.68296 63.8288 6.94525 63.9375 7.21875 63.9375H13.4062C13.6798 63.9375 13.942 63.8288 14.1354 63.6354C14.3288 63.442 14.4375 63.1797 14.4375 62.9062V42.7084L15.8428 41.3032L17.0549 44.1314C17.6057 45.4193 18.5228 46.517 19.6923 47.2881C20.8617 48.0592 22.2319 48.4698 23.6326 48.4688H25.7812C26.0154 48.4687 26.2426 48.3891 26.4255 48.2428L31.5818 44.1178C31.7025 44.0212 31.8 43.8986 31.867 43.7592C31.934 43.6198 31.9688 43.4672 31.9688 43.3125V41.25H34.0312V43.3125C34.0312 43.4672 34.066 43.6198 34.133 43.7592C34.2 43.8986 34.2975 44.0212 34.4182 44.1178L39.5745 48.2428C39.7574 48.3891 39.9846 48.4687 40.2188 48.4688H42.3674C43.7681 48.4698 45.1384 48.0592 46.3078 47.2881C47.4772 46.517 48.3943 45.4193 48.9452 44.1314L50.1572 41.3032L51.5625 42.7084V62.9062C51.5625 63.1797 51.6712 63.442 51.8646 63.6354C52.058 63.8288 52.3203 63.9375 52.5938 63.9375H58.7812C59.0547 63.9375 59.317 63.8288 59.5104 63.6354C59.7038 63.442 59.8125 63.1797 59.8125 62.9062V45.8906L63.525 43.1063C63.653 43.0102 63.757 42.8857 63.8286 42.7425C63.9002 42.5993 63.9375 42.4414 63.9375 42.2812V37.125C63.9375 36.8515 63.8289 36.5892 63.6355 36.3957L60.5418 33.302ZM29.8745 15.2189L29.8754 15.2186L29.1645 12.375H36.8355L36.1246 15.2186L36.1255 15.2189C36.1047 15.3005 36.0941 15.3845 36.0938 15.4688V18.5625H29.9062V15.4688C29.9059 15.3845 29.8953 15.3005 29.8745 15.2189ZM36.4876 4.125L35.1714 6.75751C35.0998 6.90072 35.0625 7.05864 35.0625 7.21875C35.0625 7.37886 35.0998 7.53678 35.1714 7.67999L36.4876 10.3125H29.5124L30.8286 7.67999C30.9002 7.53678 30.9375 7.37886 30.9375 7.21875C30.9375 7.05864 30.9002 6.90072 30.8286 6.75751L29.5124 4.125H36.4876ZM24.9421 16.0681C25.0375 16.2017 25.1634 16.3106 25.3094 16.3857C25.4553 16.4608 25.6171 16.5 25.7812 16.5H27.8438V19.5938C27.8438 19.8673 27.9524 20.1295 28.1458 20.3229C28.3392 20.5163 28.6015 20.625 28.875 20.625H37.125C37.3985 20.625 37.6608 20.5163 37.8542 20.3229C38.0476 20.1295 38.1562 19.8673 38.1562 19.5938V16.5H40.2188C40.3829 16.5 40.5447 16.4608 40.6906 16.3857C40.8366 16.3106 40.9625 16.2017 41.0579 16.0681L42.4987 14.051L45.375 16.9271V20.1206L36.4919 27.0298C36.385 27.1129 36.2955 27.2163 36.2286 27.334C36.1616 27.4517 36.1185 27.5815 36.1017 27.7159L35.1833 35.0625H30.8167L29.8983 27.7159C29.8815 27.5815 29.8384 27.4517 29.7714 27.334C29.7045 27.2163 29.615 27.1129 29.5081 27.0298L20.625 20.1206V16.9271L23.5013 14.0509L24.9421 16.0681ZM41.356 26.7475C41.623 26.9255 41.8451 27.1629 42.005 27.4411C42.1648 27.7193 42.2581 28.0307 42.2775 28.351C42.2968 28.6713 42.2417 28.9917 42.1165 29.2871C41.9913 29.5826 41.7994 29.845 41.5558 30.0538L37.4479 33.5748L38.0953 28.3955L40.7411 26.3376L41.356 26.7475ZM24.6439 26.7475L25.2588 26.3376L27.9047 28.3955L28.5521 33.5748L24.4442 30.0538C24.2006 29.845 24.0087 29.5826 23.8835 29.2871C23.7583 28.9917 23.7032 28.6713 23.7225 28.3511C23.7419 28.0308 23.8351 27.7193 23.995 27.4411C24.1548 27.1629 24.3769 26.9255 24.6439 26.7475ZM8.25 17.2008V12.375C8.25094 11.5548 8.57719 10.7684 9.15717 10.1884C9.73716 9.60844 10.5235 9.28219 11.3438 9.28125H14.7873C16.1716 9.28277 17.5414 9.5623 18.8156 10.1033C20.0898 10.6442 21.2423 11.4356 22.2048 12.4305L18.8645 15.7707C18.6711 15.9642 18.5625 16.2265 18.5625 16.5V20.625C18.5625 20.782 18.5984 20.937 18.6674 21.0781C18.7364 21.2191 18.8367 21.3426 18.9607 21.439L23.5427 25.0028L23.4997 25.0315C22.9677 25.3862 22.5252 25.8592 22.2066 26.4136C21.8881 26.968 21.7023 27.5886 21.6638 28.2268C21.6252 28.865 21.7351 29.5035 21.9846 30.0922C22.2341 30.6808 22.6166 31.2037 23.102 31.6198L29.2352 36.8768L29.2355 36.8763C29.4221 37.0368 29.6601 37.1251 29.9062 37.125H36.0938C36.3399 37.1251 36.5779 37.0368 36.7645 36.8763L36.7648 36.8768L42.898 31.6198C43.3834 31.2037 43.7659 30.6808 44.0154 30.0921C44.265 29.5035 44.3748 28.865 44.3362 28.2268C44.2977 27.5886 44.1119 26.968 43.7933 26.4136C43.4748 25.8592 43.0322 25.3862 42.5002 25.0315L42.4572 25.0029L47.0393 21.439C47.1633 21.3426 47.2636 21.2191 47.3326 21.0781C47.4016 20.937 47.4375 20.782 47.4375 20.625V16.5C47.4375 16.2265 47.3289 15.9642 47.1355 15.7707L43.7953 12.4305C44.7578 11.4357 45.9103 10.6443 47.1844 10.1033C48.4586 9.56231 49.8284 9.28277 51.2127 9.28125H54.6562C55.4765 9.28219 56.2628 9.60844 56.8428 10.1884C57.4228 10.7684 57.7491 11.5548 57.75 12.375V17.2008L52.7859 24.1505C52.661 24.3255 52.5938 24.535 52.5938 24.75V26.8125C52.5931 27.3593 52.3756 27.8836 51.989 28.2702C51.6023 28.6569 51.0781 28.8744 50.5312 28.875C49.4376 28.8763 48.3891 29.3112 47.6158 30.0846C46.8425 30.8579 46.4075 31.9064 46.4062 33V36.0938H41.25C41.0269 36.0938 40.8098 36.1661 40.6313 36.2999L36.7812 39.1875H29.2188L25.3687 36.2999C25.1902 36.1661 24.9731 36.0938 24.75 36.0938H19.5938V33C19.5925 31.9064 19.1575 30.8579 18.3842 30.0846C17.6109 29.3112 16.5624 28.8763 15.4688 28.875C14.9219 28.8744 14.3977 28.6569 14.011 28.2702C13.6244 27.8836 13.4069 27.3593 13.4062 26.8125V24.75C13.4062 24.535 13.339 24.3255 13.2142 24.1505L8.25 17.2008ZM43.8519 38.1562L42.8302 40.7102C42.7775 40.8422 42.6927 40.959 42.5837 41.0501C42.4747 41.1413 42.3447 41.2039 42.2055 41.2325C42.0663 41.261 41.9222 41.2546 41.786 41.2137C41.6499 41.1729 41.5261 41.0989 41.4256 40.9984L39.8736 39.4464L41.5938 38.1562H43.8519ZM26.1264 39.4464L24.5744 40.9984C24.4739 41.0989 24.3501 41.1729 24.214 41.2137C24.0778 41.2546 23.9337 41.261 23.7945 41.2325C23.6553 41.2039 23.5253 41.1413 23.4163 41.0501C23.3073 40.959 23.2225 40.8422 23.1698 40.7102L22.1482 38.1562H24.4062L26.1264 39.4464ZM12.677 41.552C12.4836 41.7454 12.375 42.0077 12.375 42.2812V61.875H8.25V45.375C8.24998 45.2149 8.2127 45.057 8.1411 44.9138C8.0695 44.7706 7.96555 44.646 7.83747 44.5499L4.125 41.7656V37.5521L6.61463 35.0625H7.9378L10.7717 36.9518C10.927 37.0553 11.1075 37.1148 11.294 37.1238C11.4804 37.1328 11.6658 37.0911 11.8304 37.003C11.9949 36.9149 12.1325 36.7838 12.2284 36.6237C12.3243 36.4636 12.375 36.2804 12.375 36.0938V32.2809L13.5778 30.4767C14.162 30.7799 14.8106 30.938 15.4688 30.9375C16.0156 30.9381 16.5398 31.1556 16.9265 31.5423C17.3131 31.9289 17.5306 32.4532 17.5312 33V36.6977L12.677 41.552ZM29.9062 42.8169L25.4195 46.4062H23.6326C22.6356 46.407 21.6603 46.1147 20.8279 45.5659C19.9955 45.017 19.3427 44.2356 18.9506 43.3189L17.4479 39.8125L17.2476 39.8984L18.9898 38.1562H19.9268L21.2548 41.4761C21.4343 41.9249 21.7225 42.3222 22.0933 42.6323C22.4642 42.9424 22.9062 43.1556 23.3798 43.2528C23.8534 43.35 24.3436 43.3282 24.8067 43.1893C25.2697 43.0504 25.6911 42.7987 26.0329 42.4569L27.7932 40.6965L28.2563 41.0438C28.4348 41.1776 28.6519 41.25 28.875 41.25H29.9062V42.8169ZM48.5521 39.8125L47.0494 43.3189C46.6573 44.2356 46.0045 45.017 45.1721 45.5659C44.3397 46.1147 43.3644 46.407 42.3674 46.4062H40.5805L36.0938 42.8169V41.25H37.125C37.3481 41.25 37.5652 41.1776 37.7437 41.0438L38.2068 40.6965L39.9671 42.4569C40.3089 42.7987 40.7303 43.0504 41.1933 43.1893C41.6564 43.3282 42.1466 43.35 42.6202 43.2528C43.0938 43.1556 43.5358 42.9424 43.9067 42.6323C44.2775 42.3222 44.5657 41.9249 44.7452 41.4761L46.0732 38.1562H47.0102L48.7524 39.8984L48.5521 39.8125ZM61.875 41.7656L58.1625 44.5499C58.0345 44.646 57.9305 44.7706 57.8589 44.9138C57.7873 45.057 57.75 45.2149 57.75 45.375V61.875H53.625V42.2812C53.625 42.0077 53.5164 41.7454 53.323 41.552L48.4688 36.6977V33C48.4694 32.4532 48.6869 31.9289 49.0735 31.5423C49.4602 31.1556 49.9844 30.9381 50.5312 30.9375C51.1894 30.938 51.838 30.7799 52.4222 30.4767L53.625 32.2809V36.0938C53.625 36.2804 53.6757 36.4636 53.7716 36.6237C53.8675 36.7838 54.0051 36.9149 54.1696 37.003C54.3342 37.0911 54.5196 37.1328 54.706 37.1238C54.8925 37.1148 55.073 37.0553 55.2283 36.9518L58.0622 35.0625H59.3854L61.875 37.5521V41.7656Z"/>
    </symbol>
    <symbol id="arrow" viewBox="0 0 23 23" fill="none">
        <path d="M5.53869 8.32713L11.0644 13.8013L16.5386 8.27563" stroke="black" stroke-width="2" stroke-linecap="round" stroke-linejoin="round"/>
    </symbol>

</svg>
